<svg width="168" height="168" viewBox="0 0 168 168" fill="none" xmlns="http://www.w3.org/2000/svg">
<path d="M79.498 1.0013C78.6745 1.52463 68.7922 14.0263 57.6471 28.7375C46.4471 43.4487 31.5137 63.0443 24.4314 72.3479C17.4039 81.5933 9.00392 92.5831 5.81961 96.7697L0 104.329L1.53725 105.666C2.36078 106.422 3.95294 107.76 5.05098 108.748L7.08235 110.492L11.2 105.085C16.3608 98.3397 31.0745 79.0348 60.0078 41.0647C81.5843 12.747 82.5725 11.5259 83.451 12.5726C84 13.1541 92.7843 24.202 102.996 37.1688C113.208 50.1357 124.737 64.7888 128.69 69.7313C132.588 74.6738 138.298 81.884 141.318 85.7217C144.392 89.5595 146.973 92.8157 147.137 92.9901C147.302 93.1646 150.486 97.1186 154.165 101.887L160.973 110.434L162.949 108.748C164.102 107.76 165.639 106.422 166.518 105.666L168 104.329L159.71 93.8623C155.153 88.1058 144.776 75.0227 136.706 64.7888C84 -1.84791 86.4706 1.17574 84.7137 0.477982C82.7373 -0.277931 81.1451 -0.161636 79.498 1.0013Z" fill="black"/>
<path d="M73.456 30.8892C68.7893 37.0528 55.5579 54.3807 44.1383 69.4408C32.6638 84.5009 23.1109 97.0607 22.8913 97.4096C22.6168 97.9329 26.954 125.378 31.5109 152.01C31.9501 154.568 32.7187 159.22 33.2128 162.36L34.1462 168H44.5776H55.0089L54.6246 165.849C54.405 164.57 53.4168 162.709 52.3187 161.43C50.0678 158.813 47.9266 154.161 47.4325 150.963C47.2129 149.742 46.7736 148.637 46.4442 148.521C41.3383 147.067 37.4952 144.392 35.903 141.194C34.7501 138.752 34.9148 132.996 36.3423 129.449C37.9893 125.204 43.6442 116.191 48.1462 110.725C52.7579 105.143 57.3697 101.48 62.7501 99.0958L66.703 97.4096L80.154 97.2351C95.2521 97.1188 96.8442 97.3514 103.432 101.015C108.044 103.573 113.48 109.097 118.75 116.54C125.668 126.309 128.193 133.17 127.15 139.217C126.656 141.834 123.746 145.381 120.836 146.718C118.97 147.649 118.64 148.056 118.366 150.207C117.872 153.405 115.676 158.406 113.315 161.43C112.272 162.825 111.229 164.86 111.064 165.965L110.734 168H119.299H127.864L128.687 164.977C129.127 163.29 131.323 154.278 133.574 145.032C135.825 135.729 139.338 121.308 141.37 112.935L145.103 97.7003L138.24 89.0945C131.817 81.0121 113.095 57.3462 92.3972 31.1799C87.4011 24.9 83.0089 19.7249 82.6246 19.7249C82.2403 19.7249 78.1227 24.7838 73.456 30.8892Z" fill="black"/>
<path d="M65.612 104.504C58.914 106.946 54.1375 111.191 47.3297 120.843C37.8316 134.217 36.7885 141.544 43.8159 144.916C47.4395 146.602 55.2904 146.719 58.4748 145.032C63.5257 142.416 68.3571 134.566 70.7728 124.972C72.0904 119.855 73.5728 109.795 73.5728 106.074V103.457H70.9924C69.5101 103.515 67.0944 103.922 65.612 104.504Z" fill="black"/>
<path d="M77.0266 104.154C76.6972 104.562 76.3129 107.353 76.0932 110.376C75.0501 125.262 70.9874 137.938 65.2227 144.043C61.2148 148.346 58.3599 150.033 54.407 150.382L51.2227 150.73L51.607 152.533C52.5952 157.301 56.3285 162.302 60.4462 164.511C63.1364 166.023 68.2423 167.07 70.4932 166.605C72.1952 166.256 72.1952 166.198 72.0305 163.116C71.8658 160.325 72.0305 159.801 73.5129 157.999C75.654 155.382 78.9481 154.336 83.6697 154.743C89.5991 155.266 92.2344 157.882 92.2344 163.232V166.139L94.705 166.546C97.8893 167.012 102.83 165.965 105.795 164.162C108.87 162.302 112.274 158.057 113.317 154.801C114.634 150.672 114.58 150.556 111.011 150.556C101.623 150.556 94.9795 144.218 90.5874 131.018C88.8305 125.669 87.0736 116.54 86.4697 108.981C86.2501 106.422 85.756 104.154 85.4266 103.922C84.3834 103.166 77.5756 103.399 77.0266 104.154ZM73.0187 146.486C74.1717 146.486 75.7638 146.253 76.5325 145.904C78.2893 145.206 79.003 146.195 77.7403 147.532C76.4227 148.928 69.6148 148.928 68.2972 147.532C67.0344 146.195 67.7481 145.206 69.505 145.904C70.2736 146.253 71.8658 146.486 73.0187 146.486ZM89.654 146.311C91.2462 146.137 93.003 145.962 93.5521 145.846C95.4736 145.439 95.1442 147.067 93.1129 147.939C88.9952 149.8 82.1325 148.056 84.3285 145.73C84.5481 145.555 85.1521 145.613 85.756 145.962C86.3599 146.311 88.1168 146.486 89.654 146.311Z" fill="black"/>
<path d="M89.1068 108.457C90.0401 123.924 95.4205 138.926 101.679 143.404C105.193 146.02 107.719 146.66 112.33 146.311C126.001 145.206 126.769 137.066 114.801 120.203C107.115 109.446 100.142 104.271 92.4558 103.573L88.7773 103.282L89.1068 108.457Z" fill="black"/>
<path d="M76.7525 157.882C74.9407 158.929 74.1172 160.383 74.1172 162.65C74.1172 166.43 79.827 168.93 85.0976 167.477C90.5329 166.023 91.8505 160.324 87.2937 157.824C85.2074 156.661 78.729 156.719 76.7525 157.882Z" fill="black"/>
</svg>
