<svg width="214" height="214" viewBox="0 0 214 214" fill="none" xmlns="http://www.w3.org/2000/svg">
<path d="M43.9376 29.8517C59.3857 46.3167 74.8338 62.4953 78.2444 65.8599C81.7219 69.2245 85.3332 72.7323 86.2694 73.7345C88.2088 75.6673 96.5013 83.3987 100.046 86.5485C100.514 86.9065 102.453 85.4031 105.529 82.2533C108.204 79.533 110.344 77.0991 110.344 76.8127C110.344 76.5264 109.341 75.5241 108.071 74.5935C106.8 73.6629 104.593 71.73 103.122 70.2983C101.651 68.8666 99.4438 66.719 98.1732 65.5736C91.8201 59.5603 84.9988 52.9743 81.8557 49.7529C68.6813 36.2945 55.8413 22.9794 45.6763 12.3129L33.9063 -1.52588e-05H24.8782H15.7832L43.9376 29.8517Z" fill="black"/>
<path d="M150.465 22.3351C148.058 24.1248 145.316 29.3506 143.377 35.9366C142.708 38.2274 141.905 40.0887 141.638 40.0887C141.37 40.0887 141.103 40.4466 141.103 40.8045C141.103 41.2341 139.164 44.885 136.756 48.9654C134.349 53.0459 132.409 56.7684 132.409 57.1979C132.409 57.6274 132.209 57.9854 131.941 57.9854C131.607 57.9854 130.336 59.7035 129.065 61.7795C127.795 63.7839 126.524 65.6452 126.324 65.8599C124.518 67.578 112.28 86.9065 112.547 87.6223C112.748 88.1235 115.289 89.77 118.165 91.2733C121.04 92.7766 123.515 94.2083 123.715 94.4231C123.916 94.6379 125.387 95.5685 127.059 96.4991C131.272 98.8615 137.425 102.441 141.772 105.018C143.778 106.235 147.255 108.239 149.462 109.456C151.669 110.745 154.679 112.535 156.15 113.465C157.621 114.396 159.226 115.183 159.694 115.255C160.229 115.255 162.169 113.608 164.041 111.604C169.525 105.734 169.725 105.662 173.939 107.309C182.432 110.53 184.505 110.96 191.527 110.96C195.472 110.96 198.749 110.673 198.95 110.244C199.15 109.814 199.819 109.528 200.421 109.528C203.832 109.528 211.522 102.942 212.392 99.291C212.592 98.2172 213.06 97.1434 213.395 96.9286C213.729 96.7139 213.997 95.139 213.997 93.4925C213.997 91.2017 213.595 89.9131 212.325 88.4814C211.389 87.4076 210.653 86.3338 210.653 86.0474C210.586 85.4032 205.504 81.6091 204.634 81.6091C204.233 81.6091 203.965 81.3227 203.965 80.8932C203.965 80.5352 203.23 80.0341 202.294 79.7478C201.357 79.533 200.622 79.0319 200.622 78.674C200.622 78.3161 200.22 78.0297 199.819 78.0297C199.351 77.9581 197.746 77.3854 196.275 76.598C194.804 75.8105 193.199 75.2378 192.797 75.1662C192.329 75.1662 191.928 74.8083 191.928 74.4504C191.928 74.0208 191.46 73.7345 190.925 73.7345C188.651 73.7345 184.438 69.8688 179.824 63.6407C178.62 61.9227 177.349 60.3477 177.082 60.2762C176.747 60.133 176.547 59.6319 176.547 59.2739C176.547 58.1286 170.729 52.4732 167.385 50.3972L164.576 48.6075L164.71 38.8717C164.777 31.5698 164.643 29.0643 164.041 28.8495C163.573 28.6348 163.172 28.1337 163.172 27.6325C163.172 26.6303 159.627 23.051 157.354 21.6192C155.147 20.3307 152.94 20.5454 150.465 22.3351Z" fill="black"/>
<path d="M6.01875 75.7389C1.80563 77.8865 0 80.9648 0 85.9043C0 91.488 0.735625 92.5618 9.3625 99.4342C12.5056 101.94 15.1806 104.302 15.2475 104.588C15.3813 104.946 15.9163 105.233 16.3844 105.233C16.8525 105.233 17.3875 105.519 17.5213 105.805C17.655 106.092 19.0594 107.452 20.7313 108.812C22.3363 110.172 24.075 111.676 24.5431 112.177C25.2119 112.821 25.4125 118.405 25.4125 136.659C25.4125 158.279 25.2788 160.498 24.2088 162.645C23.54 163.934 21.935 166.941 20.7313 169.303C19.5275 171.665 17.8556 174.744 17.12 176.104C16.3175 177.464 14.7794 180.542 13.7094 182.904C12.5725 185.267 11.5694 187.343 11.3688 187.558C11.1681 187.772 10.4325 189.204 9.69688 190.779C8.96125 192.354 8.22563 193.786 8.025 194C7.82438 194.215 7.15563 195.432 6.55375 196.721C5.21625 199.369 4.88188 207.602 6.01875 207.602C6.42 207.602 6.6875 208.103 6.6875 208.604C6.6875 210.107 10.7 213.257 13.2413 213.758C16.7188 214.474 20.865 213.472 23.0719 211.324C25.2788 209.177 25.9475 208.103 28.2213 203.307C29.0906 201.517 29.8931 199.942 30.0938 199.727C30.2944 199.513 31.03 198.081 31.7656 196.506C32.5013 194.931 33.2369 193.499 33.4375 193.285C33.6381 193.07 34.6413 190.994 35.7781 188.631C36.8481 186.269 38.7875 182.403 40.125 180.041C41.3956 177.679 42.9338 174.887 43.4019 173.813C44.5388 171.522 45.3413 171.307 45.9431 173.025C46.2106 173.741 46.8125 174.744 47.2806 175.245C47.7488 175.746 48.15 176.676 48.15 177.249C48.15 177.822 48.3506 178.251 48.685 178.251C48.9525 178.251 49.755 179.54 50.4238 181.115C51.1594 182.69 51.9619 183.978 52.2963 183.978C52.5638 183.978 52.8313 184.265 52.8313 184.694C52.8313 185.052 54.7706 188.775 57.1781 192.927C59.5856 197.007 61.525 200.73 61.525 201.159C61.525 201.517 61.7925 201.875 62.1269 201.875C62.4613 201.875 62.9294 202.448 63.13 203.092C63.9994 205.454 65.2031 207.602 65.6713 207.602C66.0056 207.602 66.2063 208.103 66.2063 208.604C66.2063 210.107 70.085 213.043 72.76 213.687C79.4475 215.19 85.065 211.181 86.5363 203.808C86.8706 202.448 86.4694 200.73 85.3994 198.439C83.1256 193.571 81.3869 190.278 80.4506 189.133C79.9825 188.631 79.5813 187.701 79.5813 187.128C79.5813 186.555 79.3138 186.126 78.9125 186.126C78.5781 186.126 78.2438 185.625 78.2438 185.052C78.2438 184.479 77.9763 183.978 77.6419 183.978C77.3075 183.978 76.8394 183.191 76.6388 182.189C76.3713 181.186 75.9031 180.399 75.5688 180.399C75.1675 180.399 74.9 180.041 74.9 179.683C74.9 179.254 73.6963 176.891 72.225 174.386C70.7538 171.88 69.55 169.518 69.55 169.017C69.55 168.587 69.2825 168.229 68.8813 168.229C68.5469 168.229 68.2125 167.728 68.2125 167.155C68.2125 166.583 67.945 166.082 67.5438 166.082C67.2094 166.082 66.875 165.724 66.875 165.366C66.875 164.865 78.4444 164.721 101.182 164.793L135.422 165.008L135.756 186.126C136.091 206.814 136.158 207.316 137.629 209.535C138.498 210.823 139.568 211.897 140.103 211.897C140.571 211.897 141.106 212.255 141.24 212.756C141.641 214.045 150.536 213.973 152.007 212.613C154.615 210.322 156.086 208.175 156.956 205.669C158.226 201.732 158.226 125.563 156.956 124.346C156.086 123.487 154.414 122.485 147.459 118.548C145.253 117.331 143.313 116.186 143.113 115.971C142.912 115.756 141.708 115.04 140.438 114.253C132.948 109.957 126.461 106.307 124.722 105.376C123.652 104.732 122.582 104.087 122.381 103.873C122.181 103.658 119.974 102.298 117.366 100.937C114.824 99.5773 112.551 98.2888 112.35 98.074C112.149 97.8593 110.478 96.857 108.605 95.7117L105.128 93.7788H71.3556C42.1981 93.7788 37.3831 93.6356 36.5138 92.705C35.9788 92.1323 35.31 91.6312 34.9756 91.6312C34.7081 91.6312 33.5713 90.7722 32.4344 89.6268C31.3644 88.553 27.0175 84.9736 22.8044 81.609C15.3813 75.7389 15.0469 75.5957 11.1013 75.381C8.8275 75.3094 6.55375 75.4526 6.01875 75.7389Z" fill="black"/>
</svg>
