<svg width="182" height="182" viewBox="0 0 182 182" fill="none" xmlns="http://www.w3.org/2000/svg">
<path d="M96.4278 0.64946C92.3048 2.31924 91.8393 5.85149 94.9648 12.6591C96.7603 16.6409 98.8217 24.0907 98.8882 26.6596C98.8882 27.366 98.0903 27.6229 95.6298 27.6871C85.4554 27.8156 79.537 39.3757 85.4554 47.5319C88.9799 52.4128 96.0288 54.4679 100.883 52.0275C103.277 50.8715 104.208 51.899 102.014 53.2477C98.3563 55.5597 96.4943 61.7251 97.8243 66.7987C98.4893 69.5602 96.8933 71.6154 94.9648 70.4594C92.8368 69.2391 88.6474 69.496 86.7189 70.9731C83.128 73.7347 82.995 79.8359 86.4529 82.2121C87.8494 83.1112 87.8494 83.3039 86.9184 84.9737L85.8544 86.7077L46.354 87.0288C16.5624 87.2857 6.45458 87.5426 5.3241 88.1206C1.66665 90.1757 -0.594317 95.1208 0.137173 99.6164C0.669165 103.149 4.52611 107.387 7.71806 107.965C8.91505 108.222 10.0455 108.736 10.1785 109.186C10.378 109.571 10.0455 111.626 9.44704 113.681C7.98406 119.333 7.98406 151.637 9.51354 157.609C12.639 169.812 21.5499 178.353 34.0517 181.115C37.8421 182.014 46.088 182.078 93.1028 181.95L147.765 181.757L151.688 180.28C162.129 176.491 169.178 169.234 172.303 159.022C173.833 154.077 173.833 117.213 172.37 112.461C171.306 109.186 171.638 108.286 173.966 108.222C175.828 108.222 179.419 105.461 180.682 103.02C183.409 98.0108 181.746 91.2675 177.158 88.5701C175.296 87.5426 173.301 87.2857 162.794 87.0288L150.558 86.7077L147.566 71.6154C145.97 63.3307 144.507 56.3946 144.374 56.202C144.174 56.0735 138.854 56.9084 132.47 58.0644C126.086 59.2204 120.567 59.9911 120.168 59.7342C119.835 59.5415 119.503 58.9635 119.503 58.4497C119.503 58.0002 118.705 56.7157 117.774 55.624L116.111 53.6973L117.641 53.312C118.505 53.1193 123.227 52.2844 128.148 51.3853C133.069 50.4861 138.721 49.4586 140.65 49.0733L144.108 48.431V45.3483C144.108 40.2105 144.773 38.1554 146.701 37.449C156.011 34.0452 162.328 28.7789 164.39 22.742C166.185 17.4758 164.39 10.7324 160.666 8.80573C158.272 7.52127 150.159 8.29195 142.711 10.5397L136.327 12.4022L129.079 11.182C124.091 10.2828 120.434 10.026 117.375 10.2828L112.986 10.6682L111.124 8.22772C105.671 1.03481 101.216 -1.27721 96.4278 0.64946ZM101.216 34.559C104.009 37.2563 104.74 40.4674 103.211 43.5501C99.4867 51.1284 88.0489 48.5595 88.0489 40.2105C88.0489 35.715 91.5733 32.5038 96.4943 32.4396C98.4893 32.4396 99.4867 32.8892 101.216 34.559ZM112.787 57.8717C115.314 59.9269 116.045 63.0095 114.582 65.7069C113.252 68.1473 111.656 69.0465 108.531 69.0465C102.08 69.0465 99.6862 60.1838 105.405 57.2295C108.065 55.8166 110.526 56.0093 112.787 57.8717ZM137.923 65.8996C139.253 68.4042 138.921 70.2667 136.859 72.3218C134.332 74.6981 131.606 74.7623 129.212 72.5145C126.219 69.5602 127.682 63.7802 131.672 63.138C133.867 62.7527 136.992 64.1013 137.923 65.8996ZM92.7703 74.9549C94.7653 76.8816 92.0388 80.4139 89.8444 78.6156C88.1819 77.267 89.1129 74.1843 91.2409 74.1843C91.6398 74.1843 92.3048 74.5054 92.7703 74.9549Z" fill="black"/>
<path d="M52.1399 29.5494C46.9529 31.2834 43.894 36.2285 44.559 41.8159C45.756 52.2199 60.7847 55.3026 66.1047 46.2472C67.9001 43.2288 68.1661 37.8341 66.6367 35.0725C65.3067 32.5678 62.0482 30.0632 59.1223 29.2283C55.9968 28.3934 55.2653 28.4576 52.1399 29.5494ZM60.5187 35.3936C62.8462 37.5772 63.3782 40.7241 62.0482 43.2288C60.7182 45.6692 58.9228 46.6968 55.8638 46.6968C50.1449 46.6968 47.4849 39.6323 51.6079 35.5863C54.2678 33.0816 58.0583 32.9532 60.5187 35.3936Z" fill="black"/>
</svg>
